PathFileType	4	(X/Y/Z)	./resultDataOpenSim/trcMotMarkerGrf/sub06/qtm-14-06.trc
DataRate	CameraRate	NumFrames	NumMarkers	Units	OrigDataRate	OrigDataStartFrame	OrigNumFrames
250.000000	250.000000	6	24	m	250.000000	67	529
Frame#	Time	L.Toe.Tip			R.Toe.Tip			L.Ankle.Lat			R.Ankle.Lat			L.Ankle.Med			R.Ankle.Med			L.Heel			R.Heel			L.Knee.Lat			R.Knee.Lat			L.Knee.Med			R.Knee.Med			L.Thigh.Upper			R.Thigh.Upper			L.ASIS			R.ASIS			V.Sacral			L.Acromium			R.Acromium			C7			L.Elbow			R.Elbow			L.Wrist.Lat			R.Wrist.Lat
		X1	Y1	Z1	X2	Y2	Z2	X3	Y3	Z3	X4	Y4	Z4	X5	Y5	Z5	X6	Y6	Z6	X7	Y7	Z7	X8	Y8	Z8	X9	Y9	Z9	X10	Y10	Z10	X11	Y11	Z11	X12	Y12	Z12	X13	Y13	Z13	X14	Y14	Z14	X15	Y15	Z15	X16	Y16	Z16	X17	Y17	Z17	X18	Y18	Z18	X19	Y19	Z19	X20	Y20	Z20	X21	Y21	Z21	X22	Y22	Z22	X23	Y23	Z23	X24	Y24	Z24

67	0.264	-1.4561617	0.073791289	-0.10182869	-0.80183581	0.035839886	0.062329162	-1.4466884	0.20480901	-0.12896831	-0.93834375	0.060285144	0.081827585	-1.4267399	0.20437826	-0.047207287	-0.9175464	0.07980365	-0.0042157197	-1.4871225	0.26259698	-0.076624268	-0.99187439	0.037542114	0.019861873	-1.105538	0.37545309	-0.15761629	-0.88432109	0.4450659	0.11016639	-1.0985063	0.36372589	-0.038713821	-0.92355722	0.43072517	-0.013024467	-1.0802118	0.7672578	-0.17001693	-1.0261059	0.79315263	0.17083621	-0.99659422	0.81656885	-0.1369456	-0.95519974	0.84021584	0.099715918	-1.1580838	0.91018102	0.012363437	-1.0119247	1.3179752	-0.17657566	-1.0166168	1.2898957	0.18505497	-1.0928764	1.3443658	0.0044163172	-1.0577045	0.9992765	-0.24961514	-1.1525195	1.0058429	0.24261496	-0.87833579	0.82775296	-0.2287293	-1.0681418	0.78301792	0.28695381
68	0.268	-1.4421317	0.076022543	-0.10140293	-0.80192369	0.035818415	0.062456416	-1.4345057	0.20714332	-0.12833138	-0.93908049	0.05997551	0.081783288	-1.4151906	0.20688812	-0.04630077	-0.91742972	0.079846931	-0.0040957258	-1.475501	0.26443193	-0.075702437	-0.99194072	0.037554118	0.01990512	-1.0930282	0.37613888	-0.15817099	-0.88223585	0.44454547	0.11094748	-1.0860831	0.36473344	-0.038843216	-0.92087941	0.4310127	-0.012380714	-1.0731785	0.76858228	-0.16968924	-1.0201358	0.79426903	0.17129999	-0.99015361	0.81797401	-0.13640007	-0.94905738	0.84123562	0.10056051	-1.151161	0.91164284	0.012922893	-1.0062082	1.3193315	-0.17642282	-1.0103272	1.2914199	0.18530787	-1.086729	1.3458631	0.0047977176	-1.0526966	1.0007617	-0.24887648	-1.1446217	1.0064448	0.24339362	-0.87480236	0.82791386	-0.22935571	-1.0580181	0.78442708	0.28797673
69	0.272	-1.4277105	0.077984741	-0.10091196	-0.80203081	0.035801628	0.062592316	-1.4219688	0.20916101	-0.12765013	-0.93948394	0.059818064	0.081833094	-1.4038159	0.20900561	-0.045209343	-0.91738398	0.079892157	-0.0039887417	-1.4636259	0.26606224	-0.074946778	-0.99201409	0.037577868	0.01994641	-1.0804066	0.37699724	-0.15871541	-0.8802847	0.44403824	0.111535	-1.0735891	0.36590719	-0.038963146	-0.91825324	0.43128439	-0.011795217	-1.0662075	0.76993682	-0.16943651	-1.0151538	0.79525813	0.17152272	-0.98371203	0.81942599	-0.1358667	-0.94296567	0.84227918	0.10141392	-1.1444718	0.91308988	0.013320571	-1.0005521	1.3207301	-0.17627507	-1.0040991	1.2930051	0.18555023	-1.0806203	1.347368	0.005148652	-1.0477583	1.0022989	-0.24820448	-1.136483	1.0072412	0.24448054	-0.87132954	0.82815205	-0.22998503	-1.0481518	0.78587229	0.2889561
70	0.276	-1.4129898	0.079677734	-0.10040009	-0.80214753	0.035788363	0.062736627	-1.4091448	0.21087076	-0.12691951	-0.93967975	0.059778221	0.081946524	-1.3916924	0.21091983	-0.044298467	-0.91738967	0.079944965	-0.0038906046	-1.451567	0.26749428	-0.074343485	-0.9920861	0.037612218	0.019982931	-1.0677354	0.37802516	-0.1592217	-0.8784027	0.44358084	0.11191213	-1.0610518	0.3672113	-0.039088939	-0.91570329	0.43151921	-0.011304762	-1.0592911	0.77134571	-0.16920495	-1.0108996	0.79614652	0.17160555	-0.97721999	0.82092681	-0.1353224	-0.93690391	0.84335093	0.10228697	-1.1382148	0.9145484	0.01320444	-0.99494604	1.322173	-0.1761265	-0.99792171	1.2946479	0.1857858	-1.0745406	1.3488802	0.0054656881	-1.0428808	1.0038991	-0.2475444	-1.1282883	1.0081357	0.24561204	-0.86790725	0.82846876	-0.23060901	-1.0384306	0.78736326	0.28990457
71	0.28	-1.398029	0.081114504	-0.099913769	-0.80226542	0.035781172	0.0628886	-1.3961583	0.21228521	-0.12611794	-0.93980902	0.059799751	0.082082874	-1.3779968	0.21281299	-0.043876417	-0.91742042	0.080006215	-0.0037916579	-1.4394055	0.26865853	-0.073816483	-0.99215143	0.037654746	0.020014954	-1.0550957	0.37921339	-0.15965523	-0.87647818	0.44318499	0.11213587	-1.0484695	0.36860513	-0.039249436	-0.9133036	0.43171464	-0.010874682	-1.0524205	0.7728213	-0.16898403	-1.0067194	0.79701905	0.17174473	-0.97076693	0.82246346	-0.13480232	-0.93086717	0.84445467	0.103187	-1.1325475	0.91606732	0.012100449	-0.98937195	1.323656	-0.17597748	-0.9917838	1.2963403	0.18601339	-1.068482	1.3504046	0.0057496591	-1.0380482	1.0055759	-0.2468168	-1.1202433	1.0090285	0.24648428	-0.86452662	0.82886454	-0.23121819	-1.0286667	0.78894489	0.29082305
72	0.284	-1.3828615	0.082311079	-0.099467621	-0.80237842	0.035781858	0.063042574	-1.3830818	0.21342759	-0.12526056	-0.93993659	0.059845055	0.082212841	-1.3630735	0.21462219	-0.043812727	-0.91745976	0.080076045	-0.0036815081	-1.4271247	0.26943654	-0.073250271	-0.99220604	0.037705945	0.020044517	-1.0425314	0.38054833	-0.16000549	-0.87445826	0.44287067	0.11234265	-1.0358093	0.37009405	-0.039471826	-0.91108361	0.43187278	-0.010464505	-1.0455717	0.77435835	-0.16874674	-1.0021994	0.79794511	0.17204331	-0.96445218	0.82403036	-0.13434435	-0.92488028	0.84557729	0.10410933	-1.1273939	0.91767619	0.010037248	-0.98381519	1.3251749	-0.17583017	-0.98567945	1.2980753	0.18623091	-1.0624455	1.3519433	0.0060051187	-1.0332563	1.0073332	-0.24599559	-1.1123875	1.0098989	0.24704688	-0.86119135	0.82933851	-0.23181187	-1.0186879	0.79067205	0.29170676
